<svg xmlns="http://www.w3.org/2000/svg" viewBox="0 0 512 512">
  <defs>
    <linearGradient id="gradBg" x1="0%" y1="0%" x2="100%" y2="100%">
      <stop offset="0%" stop-color="#0b0f19" />
      <stop offset="100%" stop-color="#141a2e" />
    </linearGradient>
    <linearGradient id="grad1" x1="0%" y1="0%" x2="100%" y2="100%">
      <stop offset="0%" stop-color="#00e5ff" />
      <stop offset="100%" stop-color="#0077ff" />
    </linearGradient>
    <linearGradient id="grad2" x1="0%" y1="0%" x2="100%" y2="100%">
      <stop offset="0%" stop-color="#b000ff" />
      <stop offset="100%" stop-color="#7000ff" />
    </linearGradient>
    <filter id="shadow" x="-20%" y="-20%" width="140%" height="140%">
      <feDropShadow dx="2" dy="8" stdDeviation="12" flood-color="#000000" flood-opacity="0.5" />
    </filter>
  </defs>
  
  <!-- App Icon Background -->
  <rect width="512" height="512" rx="120" fill="url(#gradBg)" />
  <rect x="10" y="10" width="492" height="492" rx="110" fill="none" stroke="#ffffff" stroke-width="4" stroke-opacity="0.1" />

  <!-- Left Bubble (Cyan/Blue) -->
  <path d="M 140 130 H 320 C 358.6 130 390 161.4 390 200 V 290 C 390 328.6 358.6 360 320 360 H 200 L 110 430 V 360 C 82.4 360 60 337.6 60 310 V 210 C 60 165.8 95.8 130 140 130 Z" fill="url(#grad1)" filter="url(#shadow)" opacity="0.95"/>
  <text x="225" y="295" font-family="system-ui, -apple-system, sans-serif" font-size="120" font-weight="800" fill="#ffffff" text-anchor="middle">A</text>

  <!-- Right Bubble (Purple) -->
  <path d="M 280 200 H 400 C 433.1 200 460 226.9 460 260 V 340 C 460 373.1 433.1 400 400 400 H 340 L 260 460 V 400 C 232.4 400 210 377.6 210 350 V 270 C 210 231.3 241.3 200 280 200 Z" fill="url(#grad2)" filter="url(#shadow)" opacity="0.95"/>
  <text x="335" y="340" font-family="system-ui, -apple-system, sans-serif" font-size="80" font-weight="700" fill="#ffffff" text-anchor="middle">文</text>
</svg>
